<svg width="512" height="512" viewBox="0 0 512 512" fill="none" xmlns="http://www.w3.org/2000/svg">
<path d="M255.725 512L71.9527 460.984L31 1.65082H481L440.004 460.912L255.725 512Z" fill="#264DE4"/>
<path d="M404.907 431.668L439.941 39.2081H256V472.95L404.907 431.668Z" fill="#2965F1"/>
<path d="M124.883 209.568L129.932 265.903H256V209.568H124.883Z" fill="#EBEBEB"/>
<path d="M114.738 95.544L119.859 151.88H256V95.544H255.805H114.738Z" fill="#EBEBEB"/>
<path d="M256 355.877L255.753 355.943L193.012 339.001L189.001 294.071H158.514H132.449L140.342 382.526L255.74 414.561L256 414.489V355.877Z" fill="#EBEBEB"/>
<path d="M386.756 209.568L396.926 95.544H255.805V151.88H335.187L330.061 209.568H255.805V265.903H325.176L318.637 338.965L255.805 355.924V414.534L371.296 382.526L372.143 373.008L385.381 224.696L386.756 209.568Z" fill="white"/>
</svg>
